PathFileType	4	(x/y/z)	S09_P20_T14
DataRate	CameraRate	NumFrames	NumMarkers	Units	OrigDataRate	OrigDataStartFrame	OrigNumFrames
240	240	6	51	mm	240	200	398
Frame#	Time	Sternum			R.Acromium			L.Acromium			Top.Head			R.ASIS			L.ASIS			R.PSIS			L.PSIS			R.Great.Tro			L.Great.Tro			R.Iliac.Crest			L.Iliac.Crest			V.Sacral			R.Thigh.Upper.Post			R.Thigh.Lower.Ant			R.Thigh.Lower.Post			R.Thigh.Upper.Ant			R.Knee.Lat			R.Knee.Med			R.Shank.Upper.Post			R.Shank.Lower.Ant			R.Shank.Lower.Post			R.Shank.Upper.Ant			R.Ankle.Lat			R.Ankle.Med			R.Heel.Upper			R.Heel.Med			R.Heel.Lat			R.Toe.Lat			R.Toe.Med			R.Toe.Tip			L.Thigh.Upper.Post			L.Thigh.Lower.Ant			L.Thigh.Lower.Post			L.Thigh.Upper.Ant			L.Knee.Lat			L.Knee.Med			L.Shank.Upper.Post			L.Shank.Lower.Ant			L.Shank.Lower.Post			L.Shank.Upper.Ant			L.Ankle.Lat			L.Ankle.Med			L.Heel.Upper			L.Heel.Med			L.Heel.Lat			L.Toe.Lat			L.Toe.Med			L.Toe.Tip			Cervical.Spine			Back			
		X1	Y1	Z1	X2	Y2	Z2	X3	Y3	Z3	X4	Y4	Z4	X5	Y5	Z5	X6	Y6	Z6	X7	Y7	Z7	X8	Y8	Z8	X9	Y9	Z9	X10	Y10	Z10	X11	Y11	Z11	X12	Y12	Z12	X13	Y13	Z13	X14	Y14	Z14	X15	Y15	Z15	X16	Y16	Z16	X17	Y17	Z17	X18	Y18	Z18	X19	Y19	Z19	X20	Y20	Z20	X21	Y21	Z21	X22	Y22	Z22	X23	Y23	Z23	X24	Y24	Z24	X25	Y25	Z25	X26	Y26	Z26	X27	Y27	Z27	X28	Y28	Z28	X29	Y29	Z29	X30	Y30	Z30	X31	Y31	Z31	X32	Y32	Z32	X33	Y33	Z33	X34	Y34	Z34	X35	Y35	Z35	X36	Y36	Z36	X37	Y37	Z37	X38	Y38	Z38	X39	Y39	Z39	X40	Y40	Z40	X41	Y41	Z41	X42	Y42	Z42	X43	Y43	Z43	X44	Y44	Z44	X45	Y45	Z45	X46	Y46	Z46	X47	Y47	Z47	X48	Y48	Z48	X49	Y49	Z49	X50	Y50	Z50	X51	Y51	Z51	

200	0.82917	-277.95	1202.8	350.96	-402.86	1458	506.18	-420.17	1447.7	194.91	-385.19	1756.2	348.07	-329.27	1034.3	463.06	-352.08	1038.2	219.14	-554.38	1057.5	404.67	-558.29	1054.4	315.3	-409.61	949.59	541.01	-420.24	946.65	153.81	-410.96	1113.6	513.53	-461.5	1128.5	194.02	-575.99	1021.5	359.43	-435.72	701.3	508.4	-375.07	596.36	462.98	-451.21	612.59	481.23	-366.47	682.32	492.99	-409.57	521.82	453.19	-422.99	517.98	332.9	-508.18	356.56	458.33	-448.92	288.81	444.08	-520.42	281.8	445.89	-443.12	361.61	457.52	-520.94	96.023	421.35	-492.8	106.35	336.02	-586.67	81.863	370.62	-576.94	48.667	342.93	-585.45	52.55	407.4	-426.5	39.922	461.53	-376.57	41.407	355.01	-329.08	54.07	402.34	-385.78	685.4	189.57	-279.74	622.87	169.13	-339.8	607.18	198.84	-322.56	698.73	155.81	-276.6	541.42	179.51	-228.24	553.45	305.6	-350.05	424.22	181.33	-305.03	323.55	178.49	-363.63	348.77	188.27	-291.86	399.79	172.63	-382.16	148.78	207.81	-339.31	138.24	290.57	-440.22	122.91	281.31	-422.64	96.282	309.26	-453.73	96.213	255.33	-310.28	57.727	151.56	-242.67	53.469	242.06	-210.18	62.893	171.34	-492.22	1495.8	364.73	-540.09	1234.4	360.37
201	0.83333	-272.74	1202.5	351.06	-397.28	1457.9	506	-414.82	1447.4	194.78	-379.69	1755.9	347.82	-324.44	1033.9	463.26	-346.64	1038.1	219.28	-549.33	1057.3	404.05	-553.05	1054.2	314.71	-405.13	949.32	540.95	-414.43	946.66	153.53	-406.22	1113.2	513.46	-455.91	1128.4	193.85	-570.83	1021.2	358.74	-432.7	701.36	508.18	-372.67	596.04	462.9	-448.69	612.69	481.01	-363.65	681.97	492.81	-407.59	521.62	453.13	-420.88	517.79	332.78	-506.95	356.79	458.16	-447.99	288.85	444	-519.48	282.08	445.72	-441.91	361.59	457.4	-520.76	96.246	421.18	-492.59	106.52	335.91	-586.57	81.972	370.41	-576.81	48.747	342.82	-585.38	52.72	407.25	-426.46	39.886	461.48	-376.49	41.329	355.05	-328.97	53.889	402.39	-380.61	685.2	189.79	-274.45	622.62	169.86	-334.66	606.96	199.29	-317.27	698.53	156.28	-271.1	541.06	180.25	-223.23	553.51	306.35	-341.77	421.83	181.84	-293.91	322.54	178.26	-353.15	346.02	188.33	-282.97	399.13	172.82	-365.46	145.21	206.61	-322.26	135.59	289.3	-422.59	117.41	280.08	-404.27	91.203	307.91	-435.38	90.373	253.96	-291.04	56.525	149.93	-223.21	53.966	240.33	-191.13	64.572	169.58	-486.75	1495.6	364.6	-534.8	1234.3	360.36
202	0.8375	-267.5	1202.2	351.16	-391.72	1457.7	505.82	-409.48	1446.9	194.63	-374.2	1755.7	347.55	-319.59	1033.5	463.43	-341.16	1037.8	219.39	-544.27	1057	403.4	-547.8	1054	314.09	-400.65	949.03	540.88	-408.63	946.58	153.25	-401.48	1112.9	513.36	-450.29	1128.3	193.65	-565.65	1021	358.02	-429.68	701.4	507.95	-370.25	595.71	462.8	-446.16	612.78	480.77	-360.84	681.61	492.62	-405.59	521.42	453.06	-418.71	517.59	332.65	-505.7	357.02	457.98	-447.05	288.87	443.92	-518.52	282.36	445.54	-440.67	361.57	457.28	-520.56	96.474	421	-492.39	106.7	335.79	-586.47	82.084	370.2	-576.67	48.83	342.71	-585.29	52.895	407.09	-426.41	39.849	461.42	-376.42	41.247	355.07	-328.85	53.705	402.44	-375.58	684.89	190.02	-269.31	622.22	170.62	-329.68	606.63	199.76	-312.11	698.21	156.77	-265.77	540.57	181	-218.4	553.41	307.15	-333.55	419.41	182.37	-282.86	321.6	178.04	-342.69	343.28	188.42	-274.17	398.47	173.03	-348.68	141.83	205.42	-305.17	133.17	288.06	-404.82	112.14	278.85	-385.77	86.406	306.57	-416.87	84.778	252.6	-271.78	55.557	148.36	-203.8	54.747	238.67	-172.14	66.491	167.89	-481.29	1495.4	364.45	-529.49	1234.1	360.33
203	0.84167	-262.23	1201.9	351.26	-386.15	1457.5	505.63	-404.13	1446.5	194.49	-368.71	1755.3	347.28	-314.74	1033	463.57	-335.66	1037.5	219.48	-539.19	1056.7	402.74	-542.52	1053.7	313.46	-396.18	948.72	540.78	-402.84	946.41	152.98	-396.72	1112.5	513.22	-444.63	1128	193.43	-560.45	1020.7	357.29	-426.65	701.41	507.72	-367.81	595.36	462.69	-443.6	612.85	480.51	-358.02	681.25	492.43	-403.56	521.2	452.99	-416.49	517.38	332.52	-504.43	357.25	457.78	-446.08	288.89	443.83	-517.55	282.65	445.34	-439.42	361.54	457.16	-520.37	96.709	420.83	-492.18	106.88	335.68	-586.35	82.201	369.97	-576.52	48.916	342.58	-585.21	53.076	406.93	-426.37	39.813	461.35	-376.35	41.161	355.1	-328.73	53.519	402.49	-370.68	684.48	190.26	-264.29	621.66	171.41	-324.84	606.18	200.25	-307.07	697.75	157.27	-260.59	539.98	181.76	-213.76	553.16	307.99	-325.37	416.95	182.91	-271.88	320.71	177.84	-332.26	340.58	188.52	-265.47	397.8	173.26	-331.85	138.66	204.26	-288.06	131.01	286.84	-386.93	107.14	277.64	-367.18	81.907	305.27	-398.25	79.448	251.28	-252.53	54.842	146.86	-184.47	55.824	237.1	-153.25	68.663	166.3	-475.83	1495.1	364.3	-524.18	1233.9	360.28
204	0.84583	-256.93	1201.5	351.35	-380.59	1457.3	505.44	-398.79	1445.9	194.33	-363.22	1755	347	-309.87	1032.5	463.68	-330.11	1037.2	219.53	-534.1	1056.4	402.06	-537.21	1053.5	312.81	-391.71	948.39	540.67	-397.07	946.16	152.72	-391.93	1112.1	513.04	-438.94	1127.7	193.2	-555.24	1020.4	356.54	-423.61	701.42	507.47	-365.35	595	462.57	-441.02	612.9	480.24	-355.2	680.87	492.24	-401.49	520.98	452.91	-414.21	517.16	332.38	-503.14	357.48	457.57	-445.09	288.9	443.75	-516.57	282.94	445.12	-438.14	361.5	457.04	-520.16	96.951	420.65	-491.98	107.06	335.55	-586.23	82.321	369.73	-576.37	49.004	342.44	-585.12	53.263	406.75	-426.33	39.778	461.28	-376.28	41.07	355.12	-328.61	53.331	402.55	-365.89	683.97	190.52	-259.4	620.96	172.22	-320.15	605.61	200.76	-302.15	697.17	157.78	-255.55	539.27	182.51	-209.29	552.75	308.88	-317.24	414.48	183.45	-260.97	319.9	177.65	-321.86	337.92	188.63	-256.85	397.14	173.49	-314.98	135.7	203.13	-270.96	129.11	285.67	-368.97	102.4	276.45	-348.54	77.722	304	-379.55	74.402	250	-233.3	54.393	145.46	-165.23	57.207	235.64	-134.48	71.1	164.8	-470.37	1494.7	364.13	-518.85	1233.5	360.2
205	0.85	-251.61	1201	351.44	-375.04	1457	505.26	-393.45	1445.4	194.17	-357.73	1754.5	346.7	-304.98	1031.9	463.77	-324.54	1036.7	219.55	-528.99	1056.1	401.36	-531.87	1053.2	312.15	-387.24	948.04	540.54	-391.3	945.81	152.46	-387.11	1111.6	512.83	-433.21	1127.4	192.94	-550.01	1020.1	355.77	-420.56	701.4	507.22	-362.87	594.63	462.44	-438.42	612.94	479.95	-352.36	680.49	492.05	-399.4	520.74	452.83	-411.86	516.92	332.25	-501.82	357.71	457.35	-444.08	288.89	443.66	-515.56	283.23	444.89	-436.83	361.46	456.91	-519.95	97.2	420.46	-491.76	107.24	335.42	-586.1	82.446	369.49	-576.22	49.097	342.29	-585.03	53.457	406.57	-426.29	39.746	461.21	-376.21	40.974	355.14	-328.49	53.14	402.6	-361.23	683.37	190.77	-254.65	620.12	173.04	-315.59	604.93	201.28	-297.34	696.46	158.3	-250.64	538.46	183.26	-204.99	552.19	309.82	-309.14	412.01	183.98	-250.15	319.16	177.49	-311.48	335.32	188.75	-248.32	396.49	173.73	-298.11	132.98	202.05	-253.9	127.48	284.56	-350.96	97.953	275.3	-329.87	73.859	302.79	-360.78	69.655	248.77	-214.14	54.224	144.15	-146.13	58.905	234.28	-115.86	73.81	163.43	-464.9	1494.3	363.96	-513.52	1233.2	360.11
